<?xml version="1.0" encoding="utf-8"?>
<!-- Generator: Adobe Illustrator 18.0.0, SVG Export Plug-In . SVG Version: 6.00 Build 0)  -->
<!DOCTYPE svg PUBLIC "-//W3C//DTD SVG 1.1//EN" "http://www.w3.org/Graphics/SVG/1.1/DTD/svg11.dtd">
<svg version="1.1" id="Layer_1" xmlns="http://www.w3.org/2000/svg" xmlns:xlink="http://www.w3.org/1999/xlink" x="0px" y="0px"
	 viewBox="0 0 566.9 275" enable-background="new 0 0 566.9 275" xml:space="preserve">
<g>
	<g>
		<rect x="399" y="89.9" fill="#3E7982" width="78" height="12"/>
		<rect x="308.9" y="89.9" fill="#3E7982" width="78" height="12"/>
		<polygon fill="#3E7982" points="320.9,150 308.9,150 308.9,113.9 380.9,113.9 380.9,125.9 320.9,125.9 		"/>
		<polygon fill="#3E7982" points="477,150 399,150 399,113.9 471,113.9 471,125.9 411,125.9 411,138 477,138 		"/>
		<path fill="#3E7982" d="M161.8,150H89.9v-11.8l71.9-0.2c2.6,0,5.5-2.2,5.5-5.8s-2.7-6-5.5-6l-54.1,0c-9.8,0-17.7-8.2-17.7-18
			c0-9.8,8-18,17.8-18l69.3,0v12l-69.3,0c-3.4,0-6.2,2.6-6.2,6c0,3.4,2.8,6,6.2,6h54.1c9.9,0,18,8.1,18,18
			C179.9,142.1,171.8,150,161.8,150z"/>
		<polygon fill="#3E7982" points="296.5,150 284.9,150 284.9,98.3 242.9,83.9 200.8,98.3 200.8,150 188.8,150 188.8,89.7 
			242.9,72.3 296.5,90.1 		"/>
		<rect x="212.9" y="113.9" fill="#3E7982" width="60" height="12"/>
		<g>
			<path fill="#3E7982" d="M109.8,166.1H95.3v14.6h14.5v-5l5.4,1.1v2.7c0,2.1-0.4,3.5-1.2,4.3c-0.8,0.8-2.3,1.1-4.5,1.1H95.6
				c-2.2,0-3.8-0.4-4.5-1.1c-0.8-0.8-1.2-2.2-1.2-4.3v-12.2c0-2.1,0.4-3.5,1.2-4.3c0.8-0.8,2.3-1.2,4.5-1.2h13.8
				c2.2,0,3.7,0.4,4.5,1.2c0.8,0.8,1.2,2.2,1.2,4.3v2.2l-5.4,0.9V166.1z"/>
			<path fill="#3E7982" d="M124.6,167.4c0-2.1,0.4-3.5,1.2-4.3c0.8-0.8,2.3-1.2,4.5-1.2h17c2.2,0,3.8,0.4,4.5,1.2
				c0.8,0.8,1.2,2.2,1.2,4.3v12.2c0,2.1-0.4,3.5-1.2,4.3c-0.8,0.8-2.3,1.1-4.5,1.1h-17c-2.2,0-3.8-0.4-4.5-1.1
				c-0.8-0.8-1.2-2.2-1.2-4.3V167.4z M130,180.7h17.7v-14.6H130V180.7z"/>
			<path fill="#3E7982" d="M163.2,185V162h3.7l16.2,13.6c0.6,0.5,1,0.9,1.5,1.3c0.4,0.4,0.8,0.8,1.2,1.2c-0.1-1.3-0.1-2.2-0.2-2.7
				c0-0.5,0-1,0-1.2V162h4.8V185h-3.7l-16.9-14.3c-0.4-0.4-0.8-0.7-1.1-1c-0.3-0.3-0.6-0.6-0.9-0.9c0.1,0.7,0.1,1.4,0.2,2
				c0,0.6,0.1,1.2,0.1,1.6V185H163.2z"/>
			<path fill="#3E7982" d="M220.9,166h-15.1v5h14.4c2.3,0,3.8,0.4,4.6,1.2c0.8,0.8,1.2,2.2,1.2,4.3v3.2c0,2.1-0.4,3.5-1.2,4.3
				c-0.8,0.8-2.3,1.2-4.6,1.2H206c-2.3,0-3.8-0.4-4.6-1.2c-0.8-0.8-1.2-2.2-1.2-4.3V179l4.7-1v2.7h16.3v-5.3h-14.4
				c-2.2,0-3.8-0.4-4.5-1.2c-0.8-0.8-1.2-2.2-1.2-4.3v-2.6c0-2.1,0.4-3.5,1.2-4.3c0.8-0.8,2.3-1.2,4.5-1.2H220
				c2.2,0,3.7,0.4,4.5,1.1c0.8,0.7,1.2,2.1,1.2,3.9v0.5l-4.7,1.1V166z"/>
			<path fill="#3E7982" d="M246.7,166.1V185h-5.4v-18.9h-10.6V162h26.6v4.1H246.7z"/>
			<path fill="#3E7982" d="M262.8,185V162h19.7c1.8,0,3.2,0.4,4,1.1c0.8,0.7,1.2,1.8,1.2,3.4v5.4c0,1.6-0.4,2.7-1.2,3.4
				s-2.2,1.1-4,1.1h-3l10.7,8.7h-7.7l-9.3-8.7h-5.1v8.7H262.8z M280.2,166h-12.1v6.4h12.1c0.9,0,1.6-0.1,1.9-0.4
				c0.3-0.3,0.5-0.7,0.5-1.4v-2.8c0-0.7-0.2-1.1-0.5-1.4C281.7,166.1,281.1,166,280.2,166z"/>
			<path fill="#3E7982" d="M302.9,162v18.7h15.3V162h5.3v17.6c0,2.1-0.4,3.5-1.2,4.3c-0.8,0.8-2.3,1.1-4.5,1.1h-14.6
				c-2.2,0-3.7-0.4-4.5-1.1c-0.8-0.8-1.2-2.2-1.2-4.3V162H302.9z"/>
			<path fill="#3E7982" d="M353.6,166.1h-14.5v14.6h14.5v-5l5.4,1.1v2.7c0,2.1-0.4,3.5-1.2,4.3c-0.8,0.8-2.3,1.1-4.5,1.1h-13.8
				c-2.2,0-3.8-0.4-4.5-1.1c-0.8-0.8-1.2-2.2-1.2-4.3v-12.2c0-2.1,0.4-3.5,1.2-4.3c0.8-0.8,2.3-1.2,4.5-1.2h13.8
				c2.2,0,3.7,0.4,4.5,1.2c0.8,0.8,1.2,2.2,1.2,4.3v2.2l-5.4,0.9V166.1z"/>
			<path fill="#3E7982" d="M379.7,166.1V185h-5.4v-18.9h-10.6V162h26.6v4.1H379.7z"/>
			<path fill="#3E7982" d="M395.7,185V162h5.4V185H395.7z"/>
			<path fill="#3E7982" d="M411.3,167.4c0-2.1,0.4-3.5,1.2-4.3c0.8-0.8,2.3-1.2,4.5-1.2h17c2.2,0,3.8,0.4,4.5,1.2
				c0.8,0.8,1.2,2.2,1.2,4.3v12.2c0,2.1-0.4,3.5-1.2,4.3c-0.8,0.8-2.3,1.1-4.5,1.1h-17c-2.2,0-3.8-0.4-4.5-1.1
				c-0.8-0.8-1.2-2.2-1.2-4.3V167.4z M416.7,180.7h17.7v-14.6h-17.7V180.7z"/>
			<path fill="#3E7982" d="M449.9,185V162h3.7l16.2,13.6c0.6,0.5,1,0.9,1.5,1.3s0.8,0.8,1.2,1.2c-0.1-1.3-0.1-2.2-0.2-2.7
				c0-0.5,0-1,0-1.2V162h4.8V185h-3.7l-16.9-14.3c-0.4-0.4-0.8-0.7-1.1-1c-0.3-0.3-0.6-0.6-0.9-0.9c0.1,0.7,0.1,1.4,0.2,2
				c0,0.6,0.1,1.2,0.1,1.6V185H449.9z"/>
		</g>
	</g>
</g>
</svg>
