<svg width="388" height="113" viewBox="0 0 388 113" fill="none" xmlns="http://www.w3.org/2000/svg">
<path d="M387.1 17.6H309.1V29.6H387.1V17.6Z" fill="white"/>
<path d="M297 17.6H219V29.6H297V17.6Z" fill="white"/>
<path d="M231 77.7H219V41.6H291V53.6H231V77.7Z" fill="white"/>
<path d="M387.1 77.7H309.1V41.6H381.1V53.6H321.1V65.7H387.1V77.7Z" fill="white"/>
<path d="M71.9 77.7H0V65.9L71.9 65.7C74.5 65.7 77.4 63.5 77.4 59.9C77.4 56.3 74.7 53.9 71.9 53.9H17.8C8 53.9 0.0999985 45.7 0.0999985 35.9C0.0999985 26.1 8.1 17.9 17.9 17.9H87.2V29.9H17.9C14.5 29.9 11.7 32.5 11.7 35.9C11.7 39.3 14.5 41.9 17.9 41.9H72C81.9 41.9 90 50 90 59.9C90 69.8 81.9 77.7 71.9 77.7Z" fill="white"/>
<path d="M206.6 77.7H195V26L153 11.6L110.9 26V77.7H98.9V17.4L153 0L206.6 17.8V77.7Z" fill="white"/>
<path d="M183 41.6H123V53.6H183V41.6Z" fill="white"/>
<path d="M19.9 93.8H5.4V108.4H19.9V103.4L25.3 104.5V107.2C25.3 109.3 24.9 110.7 24.1 111.5C23.3 112.3 21.8 112.6 19.6 112.6H5.7C3.5 112.6 1.9 112.2 1.2 111.5C0.399997 110.7 0 109.3 0 107.2V95C0 92.9 0.399997 91.5 1.2 90.7C2 89.9 3.5 89.5 5.7 89.5H19.5C21.7 89.5 23.2 89.9 24 90.7C24.8 91.5 25.2 92.9 25.2 95V97.2L19.8 98.1V93.8H19.9Z" fill="white"/>
<path d="M34.7 95.1C34.7 93 35.1 91.6 35.9 90.8C36.7 90 38.2 89.6 40.4 89.6H57.4C59.6 89.6 61.2 90 61.9 90.8C62.7 91.6 63.1 93 63.1 95.1V107.3C63.1 109.4 62.7 110.8 61.9 111.6C61.1 112.4 59.6 112.7 57.4 112.7H40.4C38.2 112.7 36.6 112.3 35.9 111.6C35.1 110.8 34.7 109.4 34.7 107.3V95.1V95.1ZM40.1 108.4H57.8V93.8H40.1V108.4Z" fill="white"/>
<path d="M73.3 112.7V89.7H77L93.2 103.3C93.8 103.8 94.2 104.2 94.7 104.6C95.1 105 95.5 105.4 95.9 105.8C95.8 104.5 95.8 103.6 95.7 103.1C95.7 102.6 95.7 102.1 95.7 101.9V89.7H100.5V112.7H96.8L79.9 98.4C79.5 98 79.1 97.7 78.8 97.4C78.5 97.1 78.2 96.8 77.9 96.5C78 97.2 78 97.9 78.1 98.5C78.1 99.1 78.2 99.7 78.2 100.1V112.7H73.3Z" fill="white"/>
<path d="M131 93.7H115.9V98.7H130.3C132.6 98.7 134.1 99.1 134.9 99.9C135.7 100.7 136.1 102.1 136.1 104.2V107.4C136.1 109.5 135.7 110.9 134.9 111.7C134.1 112.5 132.6 112.9 130.3 112.9H116.1C113.8 112.9 112.3 112.5 111.5 111.7C110.7 110.9 110.3 109.5 110.3 107.4V106.7L115 105.7V108.4H131.3V103.1H116.9C114.7 103.1 113.1 102.7 112.4 101.9C111.6 101.1 111.2 99.7 111.2 97.6V95C111.2 92.9 111.6 91.5 112.4 90.7C113.2 89.9 114.7 89.5 116.9 89.5H130.1C132.3 89.5 133.8 89.9 134.6 90.6C135.4 91.3 135.8 92.7 135.8 94.5V95L131.1 96.1V93.7H131Z" fill="white"/>
<path d="M156.8 93.8V112.7H151.4V93.8H140.8V89.7H167.4V93.8H156.8Z" fill="white"/>
<path d="M172.9 112.7V89.7H192.6C194.4 89.7 195.8 90.1 196.6 90.8C197.4 91.5 197.8 92.6 197.8 94.2V99.6C197.8 101.2 197.4 102.3 196.6 103C195.8 103.7 194.4 104.1 192.6 104.1H189.6L200.3 112.8H192.6L183.3 104.1H178.2V112.8H172.9V112.7ZM190.3 93.7H178.2V100.1H190.3C191.2 100.1 191.9 100 192.2 99.7C192.5 99.4 192.7 99 192.7 98.3V95.5C192.7 94.8 192.5 94.4 192.2 94.1C191.8 93.8 191.2 93.7 190.3 93.7Z" fill="white"/>
<path d="M213 89.7V108.4H228.3V89.7H233.6V107.3C233.6 109.4 233.2 110.8 232.4 111.6C231.6 112.4 230.1 112.7 227.9 112.7H213.3C211.1 112.7 209.6 112.3 208.8 111.6C208 110.8 207.6 109.4 207.6 107.3V89.7H213Z" fill="white"/>
<path d="M263.7 93.8H249.2V108.4H263.7V103.4L269.1 104.5V107.2C269.1 109.3 268.7 110.7 267.9 111.5C267.1 112.3 265.6 112.6 263.4 112.6H249.6C247.4 112.6 245.8 112.2 245.1 111.5C244.3 110.7 243.9 109.3 243.9 107.2V95C243.9 92.9 244.3 91.5 245.1 90.7C245.9 89.9 247.4 89.5 249.6 89.5H263.4C265.6 89.5 267.1 89.9 267.9 90.7C268.7 91.5 269.1 92.9 269.1 95V97.2L263.7 98.1V93.8Z" fill="white"/>
<path d="M289.8 93.8V112.7H284.4V93.8H273.8V89.7H300.4V93.8H289.8Z" fill="white"/>
<path d="M305.8 112.7V89.7H311.2V112.7H305.8Z" fill="white"/>
<path d="M321.4 95.1C321.4 93 321.8 91.6 322.6 90.8C323.4 90 324.9 89.6 327.1 89.6H344.1C346.3 89.6 347.9 90 348.6 90.8C349.4 91.6 349.8 93 349.8 95.1V107.3C349.8 109.4 349.4 110.8 348.6 111.6C347.8 112.4 346.3 112.7 344.1 112.7H327.1C324.9 112.7 323.3 112.3 322.6 111.6C321.8 110.8 321.4 109.4 321.4 107.3V95.1ZM326.8 108.4H344.5V93.8H326.8V108.4Z" fill="white"/>
<path d="M360 112.7V89.7H363.7L379.9 103.3C380.5 103.8 380.9 104.2 381.4 104.6C381.9 105 382.2 105.4 382.6 105.8C382.5 104.5 382.5 103.6 382.4 103.1C382.4 102.6 382.4 102.1 382.4 101.9V89.7H387.2V112.7H383.5L366.6 98.4C366.2 98 365.8 97.7 365.5 97.4C365.2 97.1 364.9 96.8 364.6 96.5C364.7 97.2 364.7 97.9 364.8 98.5C364.8 99.1 364.9 99.7 364.9 100.1V112.7H360Z" fill="white"/>
</svg>
